<svg xmlns="http://www.w3.org/2000/svg" width="80" height="80" viewBox="0 0 80 80">
  <g id="Group_27" data-name="Group 27" transform="translate(198 -2012)">
    <g id="icons8-postgresql" transform="translate(-188 2018.667)">
      <path id="Path_45" data-name="Path 45" d="M43.027,13.927a11.84,11.84,0,0,1,1.587,3.317A11.993,11.993,0,0,1,45.047,21a35.732,35.732,0,0,1-.288,4.183,7.883,7.883,0,0,1-.288,1.731,1.09,1.09,0,0,1-.144.577,5.408,5.408,0,0,0,.144,1.587c0,.577.144,1.154.144,2.164A17.182,17.182,0,0,1,44.47,36v.577a11.6,11.6,0,0,1-1.3,3.75c.144.288.288.433.433.721a22.959,22.959,0,0,0,1.875-3.173,53.057,53.057,0,0,0,3.462-7.933,72.34,72.34,0,0,0,2.452-8.51c1.01-4.327,1.154-6.346.721-8.654A7.574,7.574,0,0,0,51.1,9.456a12.271,12.271,0,0,0-5.77-5.048A19.584,19.584,0,0,0,36.969,2.1a23.1,23.1,0,0,0-5.769.865,27.364,27.364,0,0,1,5.914,3.606C39.422,8.591,40.72,10.61,43.027,13.927Z" transform="translate(7.656 -2.1)" fill="#ececec"/>
      <path id="Path_46" data-name="Path 46" d="M44.438,38.161a8.372,8.372,0,0,1-1.154-2.741,21.689,21.689,0,0,0-1.442-3.462c-2.164-4.9-2.452-6.346-2.452-7.5-.144-1.587-.288-3.75,1.442-5.193a8.04,8.04,0,0,1,7.645-1.587v-.288a7.233,7.233,0,0,0-1.3-2.6c-2.164-3.317-3.317-5.048-5.337-6.779a20.827,20.827,0,0,0-6.2-3.606A17.558,17.558,0,0,0,30.3,3.4a10.917,10.917,0,0,0-2.164.144,13.14,13.14,0,0,0-7.789,4.9c-2.164,2.741-2.741,5.337-3.317,8.366a26.113,26.113,0,0,0-.433,3.317,9.12,9.12,0,0,1,3.75-2.019c1.01-.288,3.606-1.154,5.77.144.721.433,1.731,1.3,2.741,3.75a19.791,19.791,0,0,1-.288,12.837,5.653,5.653,0,0,1-.577,1.3,15.46,15.46,0,0,0-.865,2.452,19.547,19.547,0,0,0-.288,2.885,2.326,2.326,0,0,1,1.3.433,4.7,4.7,0,0,1,1.01,2.164,70.361,70.361,0,0,1,.288,8.077c0,2.308,0,4.471.144,5.914.288,3.317,1.3,5.625,2.741,6.779a5.766,5.766,0,0,0,3.029,1.01h.288c2.164,0,5.625-1.442,6.923-3.462a9.787,9.787,0,0,0,1.3-3.606c.144-.865.144-1.3.288-2.164,0-.433.144-1.154.144-2.019a20.266,20.266,0,0,1,.288-2.6c.144-2.452.577-5.337.721-6.923a9.094,9.094,0,0,1,1.731-4.471A3.615,3.615,0,0,1,44.438,38.161Z" transform="translate(1.197 -1.525)" fill="#ececec"/>
      <path id="Path_47" data-name="Path 47" d="M48.29,20.863c0-.288.144-.721.288-1.587a25.749,25.749,0,0,0,.288-3.317c-.288-.144-.433-.288-.721-.433,0,0-3.029-1.3-5.337.721a3.415,3.415,0,0,0-.433,2.741c0,.721.144,1.731,2.308,6.635a26.985,26.985,0,0,1,1.442,3.606,9.793,9.793,0,0,0,1.154,2.452,3.017,3.017,0,0,0,.577.865,5.793,5.793,0,0,0,.577-2.308l.144-.433a17.871,17.871,0,0,0,.144-4.039c0-.865-.144-1.442-.144-1.875a10.217,10.217,0,0,1-.144-2.164C48.146,21.3,48.146,21.151,48.29,20.863Zm-2.741-3.029a2.218,2.218,0,0,1-.865.577c-.577.144-1.01-.288-1.154-.288-.144-.144-.577-.577-.433-1.01.144-.288.288-.288.865-.433.433-.144,1.587-.288,1.875,0C46.271,16.968,45.694,17.69,45.549,17.834Zm-19.472.288a3.748,3.748,0,0,0-1.442-2.164c-1.01-.577-2.6-.144-3.462.144a8.738,8.738,0,0,0-3.317,2.019,13,13,0,0,0-1.3,1.442,21.52,21.52,0,0,0,.288,3.029v.144l-.288,2.885a8.7,8.7,0,0,0,1.01,6.2A7.54,7.54,0,0,0,20.6,35.142a9.964,9.964,0,0,0,3.317,1.3,23.587,23.587,0,0,1,.288-3.173,10.557,10.557,0,0,1,1.01-3.029,4.319,4.319,0,0,1,.577-1.154C25.933,28.652,27.952,23.171,26.077,18.122Zm-1.154,1.3a1.829,1.829,0,0,1-1.154.433,1.694,1.694,0,0,1-1.442-.865.634.634,0,0,1-.144-.721.773.773,0,0,1,.577-.433,2.27,2.27,0,0,1,1.731.144c.433.144.865.288.865.577C25.5,18.988,25.068,19.276,24.923,19.42ZM50.886,41.489a8.176,8.176,0,0,0,4.183-1.731c1.01-.721,2.308-2.164,2.019-2.741-.144-.288-.577-.144-2.885,0a12.684,12.684,0,0,1-3.462.144h-.288a1.44,1.44,0,0,1-.721-.577h0a8.11,8.11,0,0,0-1.875,4.039,1.3,1.3,0,0,1-.144.721A7.969,7.969,0,0,0,50.886,41.489Z" transform="translate(1.095 3.658)" fill="#ececec"/>
      <path id="Path_48" data-name="Path 48" d="M25.087,43.3c-.144-.144-.433-.144-.577-.288a11.648,11.648,0,0,1-4.039-4.327,12.363,12.363,0,0,1-1.3-7.933l.144-2.452a33.521,33.521,0,0,1,.288-11.395A20.155,20.155,0,0,1,23.5,7.242a13.657,13.657,0,0,1,2.885-2.885,21.114,21.114,0,0,0-7.212-1.731,13.8,13.8,0,0,0-7.5,1.154A11.2,11.2,0,0,0,7.058,7.387a13.713,13.713,0,0,0-2.452,6.058c-.433,2.164-.577,4.76.288,9.664.577,3.462,1.154,5.77,2.308,10.529.144.577,1.01,3.173,2.885,8.943l.144.288a14.919,14.919,0,0,0,3.029,5.337c1.3,1.442,2.452,2.308,3.462,2.308h.288c1.875,0,3.173-1.442,4.327-2.6C21.337,47.773,24.078,44.456,25.087,43.3Zm6.635,1.875h-.144a6.468,6.468,0,0,1-1.587-.144,6.663,6.663,0,0,1-1.01,1.01,12.439,12.439,0,0,1-4.039,1.587c-1.3.433-2.019.433-2.019.865-.144.577,1.3,1.3,2.019,1.587a8.581,8.581,0,0,0,5.337.288,18.586,18.586,0,0,0,1.731-.865,33.584,33.584,0,0,0-.288-4.183Z" transform="translate(-4.261 -1.905)" fill="#ececec"/>
    </g>
    <rect id="Rectangle_24" data-name="Rectangle 24" width="80" height="80" transform="translate(-198 2012)" fill="none"/>
  </g>
</svg>
