<svg xmlns="http://www.w3.org/2000/svg" width="80" height="80" viewBox="0 0 80 80">
  <g id="Group_31" data-name="Group 31" transform="translate(472 -1776)">
    <path id="MongoDB_Leaf_Black_RGB" d="M45.48,37.739c-4.214-18.6-14.172-24.712-15.244-27.048a28.009,28.009,0,0,1-2.361-4.58c-.02-.049-.051-.137-.088-.222a4.934,4.934,0,0,1-1.742,3.946c-2.413,1.887-14.793,12.274-15.8,33.4C9.3,62.944,24.478,74.687,26.535,76.184l.233.165v-.015c.013.1.65,4.69,1.1,9.556h1.607a94.684,94.684,0,0,1,1.7-10.232l.125-.084a26.643,26.643,0,0,0,2.62-2.143l.093-.084A37.806,37.806,0,0,0,46.136,45.133,45.222,45.222,0,0,0,45.48,37.739ZM27.693,65.058s0-27.638.916-27.632c.711,0,1.632,35.649,1.632,35.649C28.972,72.923,27.693,67.209,27.693,65.058Z" transform="translate(-458.868 1770.11)" fill="#ececec"/>
    <rect id="Rectangle_22" data-name="Rectangle 22" width="80" height="80" transform="translate(-472 1776)" fill="none"/>
  </g>
</svg>
